<svg width="32" height="32" viewBox="0 0 32 32" fill="none" xmlns="http://www.w3.org/2000/svg">
<path fill-rule="evenodd" clip-rule="evenodd" d="M26.3917 18.0834L27 17.7798V23.7C27 24.5752 26.6523 25.4146 26.0335 26.0334C25.4146 26.6523 24.5752 27 23.7 27H8.3C7.42479 27 6.58542 26.6523 5.96655 26.0334C5.34768 25.4146 5 24.5752 5 23.7V17.7798L5.6083 18.0834L5.6105 18.0856L5.6149 18.0878L5.6292 18.0944L5.6743 18.1164L5.8404 18.1934C5.9834 18.2594 6.1902 18.3518 6.4531 18.4596C6.9789 18.6774 7.7324 18.9656 8.6641 19.2516C10.5209 19.8236 13.107 20.4 16 20.4C18.8908 20.4 21.478 19.8225 23.337 19.2516C24.0859 19.022 24.8237 18.7577 25.548 18.4596C25.81 18.3515 26.0693 18.237 26.3257 18.1164L26.3708 18.0944L26.3851 18.0878L26.3895 18.0856L26.3917 18.0834Z" fill="#BCC1AB"/>
<path fill-rule="evenodd" clip-rule="evenodd" d="M13.8 5C12.9248 5 12.0854 5.34768 11.4665 5.96655C10.8477 6.58542 10.5 7.42479 10.5 8.3V9.4H8.3C7.42479 9.4 6.58542 9.74768 5.96655 10.3665C5.34768 10.9854 5 11.8248 5 12.7V15.3202L6.5917 16.1155L6.5972 16.1188L6.6269 16.1331L6.7589 16.1947C6.8777 16.2497 7.0581 16.33 7.2935 16.4279C7.7654 16.6226 8.4551 16.8855 9.3109 17.1484C11.0291 17.6764 13.393 18.2 16 18.2C18.6092 18.2 20.972 17.6775 22.688 17.1484C23.546 16.8844 24.2346 16.6226 24.7065 16.4279C24.931 16.3349 25.1533 16.2366 25.3731 16.1331L25.4028 16.1188L25.4083 16.1166L27 15.3191V12.7C27 11.8248 26.6523 10.9854 26.0335 10.3665C25.4146 9.74768 24.5752 9.4 23.7 9.4H21.5V8.3C21.5 7.42479 21.1523 6.58542 20.5335 5.96655C19.9146 5.34768 19.0752 5 18.2 5H13.8ZM19.3 9.4V8.3C19.3 8.00826 19.1841 7.72847 18.9778 7.52218C18.7715 7.31589 18.4917 7.2 18.2 7.2H13.8C13.5083 7.2 13.2285 7.31589 13.0222 7.52218C12.8159 7.72847 12.7 8.00826 12.7 8.3V9.4H19.3ZM16 13.8C15.7083 13.8 15.4285 13.9159 15.2222 14.1222C15.0159 14.3285 14.9 14.6083 14.9 14.9C14.9 15.1917 15.0159 15.4715 15.2222 15.6778C15.4285 15.8841 15.7083 16 16 16H16.011C16.3027 16 16.5825 15.8841 16.7888 15.6778C16.9951 15.4715 17.111 15.1917 17.111 14.9C17.111 14.6083 16.9951 14.3285 16.7888 14.1222C16.5825 13.9159 16.3027 13.8 16.011 13.8H16Z" fill="#465613"/>
</svg>
