<svg width="32" height="32" viewBox="0 0 32 32" fill="none" xmlns="http://www.w3.org/2000/svg">
<path fill-rule="evenodd" clip-rule="evenodd" d="M19.8093 4C19.1527 4 18.5229 4.26086 18.0585 4.7252C17.5942 5.18954 17.3333 5.81932 17.3333 6.476V12.1907C17.3333 13.5587 18.4413 14.6667 19.8093 14.6667H25.524C26.1807 14.6667 26.8105 14.4058 27.2748 13.9415C27.7391 13.4771 28 12.8473 28 12.1907V6.476C28 5.81932 27.7391 5.18954 27.2748 4.7252C26.8105 4.26086 26.1807 4 25.524 4H19.8093Z" fill="#C1C1C1"/>
<path fill-rule="evenodd" clip-rule="evenodd" d="M6.476 4C5.81932 4 5.18954 4.26086 4.7252 4.7252C4.26086 5.18954 4 5.81932 4 6.476V12.1907C4 13.5587 5.108 14.6667 6.476 14.6667H12.1907C12.8473 14.6667 13.4771 14.4058 13.9415 13.9415C14.4058 13.4771 14.6667 12.8473 14.6667 12.1907V6.476C14.6667 5.81932 14.4058 5.18954 13.9415 4.7252C13.4771 4.26086 12.8473 4 12.1907 4H6.476ZM6.476 17.3333C5.81932 17.3333 5.18954 17.5942 4.7252 18.0585C4.26086 18.5229 4 19.1527 4 19.8093V25.524C4 26.892 5.108 28 6.476 28H12.1907C12.8473 28 13.4771 27.7391 13.9415 27.2748C14.4058 26.8105 14.6667 26.1807 14.6667 25.524V19.8093C14.6667 19.1527 14.4058 18.5229 13.9415 18.0585C13.4771 17.5942 12.8473 17.3333 12.1907 17.3333H6.476ZM19.8093 17.3333C19.1527 17.3333 18.5229 17.5942 18.0585 18.0585C17.5942 18.5229 17.3333 19.1527 17.3333 19.8093V25.524C17.3333 26.892 18.4413 28 19.8093 28H25.524C26.1807 28 26.8105 27.7391 27.2748 27.2748C27.7391 26.8105 28 26.1807 28 25.524V19.8093C28 19.1527 27.7391 18.5229 27.2748 18.0585C26.8105 17.5942 26.1807 17.3333 25.524 17.3333H19.8093Z" fill="#6B6B6B"/>
</svg>
