<svg width="32" height="32" viewBox="0 0 32 32" fill="none" xmlns="http://www.w3.org/2000/svg">
<path fill-rule="evenodd" clip-rule="evenodd" d="M9.33334 8.00004C9.33334 7.2928 9.61429 6.61452 10.1144 6.11442C10.6145 5.61433 11.2928 5.33337 12 5.33337H26.6667C27.3739 5.33337 28.0522 5.61433 28.5523 6.11442C29.0524 6.61452 29.3333 7.2928 29.3333 8.00004V17.3334C29.3333 18.0406 29.0524 18.7189 28.5523 19.219C28.0522 19.7191 27.3739 20 26.6667 20H24V14.6667C24 13.6058 23.5786 12.5884 22.8284 11.8383C22.0783 11.0881 21.0609 10.6667 20 10.6667H9.33334V8.00004Z" fill="#C1C1C1"/>
<path fill-rule="evenodd" clip-rule="evenodd" d="M2.66667 14.6667C2.66667 13.9594 2.94762 13.2811 3.44772 12.781C3.94781 12.281 4.62609 12 5.33333 12H20C20.7072 12 21.3855 12.281 21.8856 12.781C22.3857 13.2811 22.6667 13.9594 22.6667 14.6667V24C22.6667 24.7072 22.3857 25.3855 21.8856 25.8856C21.3855 26.3857 20.7072 26.6667 20 26.6667H5.33333C4.62609 26.6667 3.94781 26.3857 3.44772 25.8856C2.94762 25.3855 2.66667 24.7072 2.66667 24V14.6667ZM12.6667 16C11.7826 16 10.9348 16.3512 10.3096 16.9763C9.68452 17.6014 9.33333 18.4493 9.33333 19.3333C9.33333 20.2174 9.68452 21.0652 10.3096 21.6904C10.9348 22.3155 11.7826 22.6667 12.6667 22.6667C13.5507 22.6667 14.3986 22.3155 15.0237 21.6904C15.6488 21.0652 16 20.2174 16 19.3333C16 18.4493 15.6488 17.6014 15.0237 16.9763C14.3986 16.3512 13.5507 16 12.6667 16Z" fill="#6B6B6B"/>
<path d="M14 19.3333C14 19.687 13.8595 20.0261 13.6095 20.2761C13.3594 20.5262 13.0203 20.6667 12.6667 20.6667C12.313 20.6667 11.9739 20.5262 11.7239 20.2761C11.4738 20.0261 11.3333 19.687 11.3333 19.3333C11.3333 18.9797 11.4738 18.6406 11.7239 18.3905C11.9739 18.1405 12.313 18 12.6667 18C13.0203 18 13.3594 18.1405 13.6095 18.3905C13.8595 18.6406 14 18.9797 14 19.3333Z" fill="#6B6B6B"/>
</svg>
