<svg width="32" height="32" viewBox="0 0 32 32" fill="none" xmlns="http://www.w3.org/2000/svg">
<path fill-rule="evenodd" clip-rule="evenodd" d="M26.6667 13.3334H5.33334V24C5.33334 24.7073 5.61429 25.3856 6.11438 25.8857C6.61448 26.3858 7.29276 26.6667 8 26.6667H24C24.7072 26.6667 25.3855 26.3858 25.8856 25.8857C26.3857 25.3856 26.6667 24.7073 26.6667 24V13.3334ZM12 17.3334V16H20V17.3334C20 17.687 19.8595 18.0261 19.6095 18.2762C19.3594 18.5262 19.0203 18.6667 18.6667 18.6667H13.3333C12.9797 18.6667 12.6406 18.5262 12.3905 18.2762C12.1405 18.0261 12 17.687 12 17.3334Z" fill="#6B6B6B"/>
<path d="M2.66667 8.00004C2.66667 7.2928 2.94762 6.61452 3.44772 6.11442C3.94781 5.61433 4.62609 5.33337 5.33333 5.33337H26.6667C27.3739 5.33337 28.0522 5.61433 28.5523 6.11442C29.0524 6.61452 29.3333 7.2928 29.3333 8.00004C29.3333 8.70728 29.0524 9.38556 28.5523 9.88566C28.0522 10.3858 27.3739 10.6667 26.6667 10.6667H5.33333C4.62609 10.6667 3.94781 10.3858 3.44772 9.88566C2.94762 9.38556 2.66667 8.70728 2.66667 8.00004Z" fill="#C1C1C1"/>
</svg>
