<svg width="32" height="32" viewBox="0 0 32 32" fill="none" xmlns="http://www.w3.org/2000/svg">
<path d="M7 20.6666C7 19.3786 8.04533 18.3333 9.33333 18.3333H22.6667C23.9547 18.3333 25 19.3786 25 20.6666C25 21.6391 24.6137 22.5717 23.9261 23.2593C23.2384 23.947 22.3058 24.3333 21.3333 24.3333H10.6667C9.69421 24.3333 8.76157 23.947 8.07394 23.2593C7.38631 22.5717 7 21.6391 7 20.6666ZM8.83733 9.02129C9.16 6.33863 9.32 4.99863 10.096 4.08263C10.3422 3.79184 10.6286 3.53772 10.9467 3.32796C11.9467 2.66663 13.2987 2.66663 16 2.66663C18.7013 2.66663 20.052 2.66663 21.0533 3.32796C21.3714 3.53772 21.6578 3.79184 21.904 4.08263C22.68 4.99863 22.8413 6.33863 23.1627 9.02129L23.284 10.0306C23.6173 12.8146 23.7853 14.2066 22.9893 15.1026C22.1933 16 20.792 16 17.9893 16H14.012C11.208 16 9.80667 16 9.012 15.1026C8.216 14.2066 8.38267 12.8146 8.716 10.0306L8.83733 9.02129Z" fill="#465613"/>
<path d="M2.66675 14.3334C2.40153 14.3334 2.14718 14.4387 1.95964 14.6263C1.7721 14.8138 1.66675 15.0682 1.66675 15.3334C1.66675 15.5986 1.7721 15.8529 1.95964 16.0405C2.14718 16.228 2.40153 16.3334 2.66675 16.3334C3.76941 16.3334 4.38675 16.456 4.76541 16.624C5.09741 16.7707 5.31208 16.9774 5.54008 17.3534C5.58008 17.42 5.59741 17.448 5.61475 17.4814C5.63208 17.5134 5.65608 17.5587 5.69875 17.6507C5.76541 17.7974 5.79875 17.8907 5.89875 18.1894L7.05075 21.6494C7.09276 21.775 7.15939 21.8911 7.24675 21.9907C7.08328 21.5684 6.99964 21.1195 7.00008 20.6667C7.00008 19.8054 7.46675 19.0534 8.16008 18.6494L7.78675 17.5334C7.71067 17.2866 7.61938 17.0448 7.51341 16.8094C7.43679 16.6387 7.34859 16.4734 7.24941 16.3147C6.86941 15.6894 6.37475 15.1467 5.57208 14.7947C4.81741 14.4614 3.87341 14.3334 2.66675 14.3334ZM17.0001 18.3334H15.0001V16H17.0001V18.3334ZM24.7534 21.9907C24.9173 21.5686 25.0009 21.1195 25.0001 20.6667C25.0001 19.8054 24.5334 19.0534 23.8401 18.6494L24.2134 17.5334C24.2891 17.2865 24.3804 17.0447 24.4867 16.8094C24.6014 16.5627 24.6601 16.4654 24.7507 16.3147C25.1307 15.6894 25.6267 15.1467 26.4281 14.7947C27.1827 14.4614 28.1267 14.3334 29.3334 14.3334C29.5986 14.3334 29.853 14.4387 30.0405 14.6263C30.2281 14.8138 30.3334 15.0682 30.3334 15.3334C30.3334 15.5986 30.2281 15.8529 30.0405 16.0405C29.853 16.228 29.5986 16.3334 29.3334 16.3334C28.2307 16.3334 27.6134 16.456 27.2347 16.624C26.9027 16.7707 26.6881 16.9774 26.4601 17.3534C26.4201 17.42 26.4027 17.448 26.3854 17.4814C26.3556 17.5369 26.3276 17.5934 26.3014 17.6507C26.2347 17.7974 26.2014 17.8907 26.1014 18.1894L24.9494 21.6494C24.9074 21.7751 24.8408 21.8911 24.7534 21.9907ZM15.0001 24.3334H17.0001V25.888C17.761 26.1021 18.4579 26.4992 19.0299 27.0447C19.6019 27.5902 20.0316 28.2675 20.2814 29.0174C20.3538 29.2657 20.3272 29.5324 20.2072 29.7615C20.0872 29.9906 19.883 30.1643 19.6376 30.2461C19.3923 30.3278 19.1247 30.3114 18.8913 30.2001C18.6578 30.0889 18.4765 29.8915 18.3854 29.6494C18.1518 28.9495 17.6549 28.368 17.0001 28.028V29.3334C17.0001 29.5986 16.8947 29.8529 16.7072 30.0405C16.5197 30.228 16.2653 30.3334 16.0001 30.3334C15.7349 30.3334 15.4805 30.228 15.293 30.0405C15.1054 29.8529 15.0001 29.5986 15.0001 29.3334V28.0267C14.345 28.367 13.8481 28.949 13.6147 29.6494C13.5284 29.8977 13.3476 30.102 13.1117 30.2181C12.8758 30.3342 12.6037 30.3526 12.3542 30.2696C12.1048 30.1865 11.8981 30.0085 11.7789 29.7741C11.6597 29.5398 11.6376 29.2679 11.7174 29.0174C11.9674 28.2673 12.3973 27.5899 12.9695 27.0444C13.5418 26.4989 14.2389 26.1019 15.0001 25.888V24.3334Z" fill="#BCC1AB"/>
</svg>
