<svg width="32" height="32" viewBox="0 0 32 32" fill="none" xmlns="http://www.w3.org/2000/svg">
<path fill-rule="evenodd" clip-rule="evenodd" d="M12.7813 3.44802C13.2813 2.94789 13.9595 2.66684 14.6667 2.66669H17.3333C18.0406 2.66669 18.7189 2.94764 19.219 3.44774C19.719 3.94783 20 4.62611 20 5.33335V5.45202L20.6307 5.71335L20.7147 5.62935C21.2151 5.13008 21.8931 4.84969 22.6 4.84969C23.3069 4.84969 23.9849 5.13008 24.4853 5.62935L26.3707 7.51469C26.8702 8.01471 27.1508 8.69258 27.1508 9.39935C27.1508 10.1061 26.8702 10.784 26.3707 11.284L26.2867 11.3694L26.548 12H26.6667C27.3739 12 28.0522 12.281 28.5523 12.7811C29.0524 13.2812 29.3333 13.9594 29.3333 14.6667V17.3334C29.3333 18.0406 29.0524 18.7189 28.5523 19.219C28.0522 19.7191 27.3739 20 26.6667 20H26.548L26.2867 20.6307L26.3707 20.7147C26.8699 21.2151 27.1503 21.8931 27.1503 22.6C27.1503 23.3069 26.8699 23.9849 26.3707 24.4854L24.4853 26.3707C23.9853 26.8706 23.3071 27.1514 22.6 27.1514C21.8929 27.1514 21.2147 26.8706 20.7147 26.3707L20.6307 26.2867L20 26.548V26.6667C20 27.3739 19.719 28.0522 19.219 28.5523C18.7189 29.0524 18.0406 29.3334 17.3333 29.3334H14.6667C13.9594 29.3334 13.2811 29.0524 12.781 28.5523C12.281 28.0522 12 27.3739 12 26.6667V26.548L11.3693 26.2867L11.2853 26.3707C10.7849 26.87 10.1069 27.1503 9.4 27.1503C8.69311 27.1503 8.01509 26.87 7.51467 26.3707L5.62933 24.4854C5.12982 23.9853 4.84924 23.3075 4.84924 22.6007C4.84924 21.8939 5.12982 21.216 5.62933 20.716L5.71333 20.6307L5.452 20H5.33333C4.62609 20 3.94781 19.7191 3.44772 19.219C2.94762 18.7189 2.66667 18.0406 2.66667 17.3334V14.6667C2.66667 13.9594 2.94762 13.2812 3.44772 12.7811C3.94781 12.281 4.62609 12 5.33333 12H5.45333L5.71333 11.3694L5.62933 11.2854C5.12941 10.7853 4.84857 10.1071 4.84857 9.40002C4.84857 8.69292 5.12941 8.01476 5.62933 7.51469L7.51467 5.62935C8.01469 5.12984 8.69256 4.84926 9.39933 4.84926C10.1061 4.84926 10.784 5.12984 11.284 5.62935L11.3693 5.71335L12 5.45202V5.33335C12.0002 4.62617 12.2812 3.948 12.7813 3.44802ZM10.6667 16C10.6667 14.5855 11.2286 13.229 12.2288 12.2288C13.229 11.2286 14.5855 10.6667 16 10.6667C17.4145 10.6667 18.771 11.2286 19.7712 12.2288C20.7714 13.229 21.3333 14.5855 21.3333 16C21.3333 17.4145 20.7714 18.7711 19.7712 19.7713C18.771 20.7715 17.4145 21.3334 16 21.3334C14.5855 21.3334 13.229 20.7715 12.2288 19.7713C11.2286 18.7711 10.6667 17.4145 10.6667 16Z" fill="#6B6B6B"/>
</svg>
