<svg width="32" height="32" viewBox="0 0 32 32" fill="none" xmlns="http://www.w3.org/2000/svg">
<path fill-rule="evenodd" clip-rule="evenodd" d="M4 18.6667V16H28V18.6667C28 19.3739 27.719 20.0522 27.219 20.5523C26.7189 21.0524 26.0406 21.3333 25.3333 21.3333H17.3333V25.3333H20C20.3536 25.3333 20.6928 25.4738 20.9428 25.7239C21.1929 25.9739 21.3333 26.313 21.3333 26.6667C21.3333 27.0203 21.1929 27.3594 20.9428 27.6095C20.6928 27.8595 20.3536 28 20 28H12C11.6464 28 11.3072 27.8595 11.0572 27.6095C10.8071 27.3594 10.6667 27.0203 10.6667 26.6667C10.6667 26.313 10.8071 25.9739 11.0572 25.7239C11.3072 25.4738 11.6464 25.3333 12 25.3333H14.6667V21.3333H6.66667C5.95942 21.3333 5.28115 21.0524 4.78105 20.5523C4.28095 20.0522 4 19.3739 4 18.6667Z" fill="#C1C1C1"/>
<path fill-rule="evenodd" clip-rule="evenodd" d="M6.66667 4C5.95942 4 5.28115 4.28095 4.78105 4.78105C4.28095 5.28115 4 5.95942 4 6.66667V13.3333H28V6.66667C28 5.95942 27.719 5.28115 27.219 4.78105C26.7189 4.28095 26.0406 4 25.3333 4H6.66667Z" fill="#6B6B6B"/>
</svg>
