<svg width="32" height="32" viewBox="0 0 32 32" fill="none" xmlns="http://www.w3.org/2000/svg">
<path d="M26.8267 2.66663H25.1867C24.5067 2.66663 23.9467 3.17329 23.8667 3.83996L22.9333 11.3333H29.0667L28.1467 3.83996C28.0667 3.17329 27.4933 2.66663 26.8267 2.66663Z" fill="#BCC1AB"/>
<path d="M18.6667 13.3333V11.3066C18.6667 10.3599 17.7201 9.71995 16.8401 10.0666L12.0001 11.9999V11.3599C12.0001 10.3999 11.0267 9.74661 10.1467 10.1333L4.28008 12.6399C3.30675 13.0666 2.66675 14.0266 2.66675 15.0933V26.6666C2.66675 28.1333 3.86675 29.3333 5.33341 29.3333H26.6667C28.1334 29.3333 29.3334 28.1333 29.3334 26.6666V13.3333H18.6667ZM12.0001 22.6666C12.0001 23.3999 11.4001 23.9999 10.6667 23.9999C9.93341 23.9999 9.33342 23.3999 9.33342 22.6666V19.9999C9.33342 19.2666 9.93341 18.6666 10.6667 18.6666C11.4001 18.6666 12.0001 19.2666 12.0001 19.9999V22.6666ZM17.3334 22.6666C17.3334 23.3999 16.7334 23.9999 16.0001 23.9999C15.2667 23.9999 14.6667 23.3999 14.6667 22.6666V19.9999C14.6667 19.2666 15.2667 18.6666 16.0001 18.6666C16.7334 18.6666 17.3334 19.2666 17.3334 19.9999V22.6666ZM22.6667 22.6666C22.6667 23.3999 22.0667 23.9999 21.3334 23.9999C20.6001 23.9999 20.0001 23.3999 20.0001 22.6666V19.9999C20.0001 19.2666 20.6001 18.6666 21.3334 18.6666C22.0667 18.6666 22.6667 19.2666 22.6667 19.9999V22.6666Z" fill="#465613"/>
</svg>
