<svg width="32" height="32" viewBox="0 0 32 32" fill="none" xmlns="http://www.w3.org/2000/svg">
<path opacity="0.3" d="M1.26913 25.6C0.062847 26.6708 -1.00136e-05 27.7914 1.12113 28.9246L3.10056 30.892C4.20856 32 5.36628 31.9377 6.42513 30.7423L18.4154 17.2823L14.7297 13.6091L1.26913 25.6Z" fill="#465613"/>
<path d="M8.87774 4.88112C12.6755 1.05826 19.2995 1.41941 22.5497 4.64455L26.3966 8.47884C27.144 9.21369 27.3806 9.86169 27.1937 10.5588L26.596 12.7005L27.58 13.6468L29.0115 13.4725C29.572 13.3851 29.9577 13.4845 30.4435 13.9828L31.4023 14.9417C31.9252 15.4897 32 16.1743 31.4897 16.6851L27.4926 20.6565C26.9823 21.1674 26.2972 21.1177 25.7623 20.5823L24.7909 19.6485C24.28 19.1377 24.2057 18.7765 24.2926 18.1914L24.4549 16.772L23.4835 15.8005L21.4663 16.2611C20.632 16.4611 19.9972 16.2863 19.424 15.7011L16.548 12.8125C15.8383 12.0903 15.6263 11.3308 16.0252 10.2474L17.0709 7.45826C15.116 6.01426 12.6629 6.08855 10.0109 6.92283C9.56231 7.05998 9.08974 6.92283 8.79088 6.61141C8.36745 6.18798 8.25488 5.49083 8.87774 4.88112Z" fill="#465613"/>
</svg>
