<svg width="32" height="32" viewBox="0 0 32 32" fill="none" xmlns="http://www.w3.org/2000/svg">
<path d="M22.6667 4.45339C24.6778 5.61453 26.3507 7.28076 27.5198 9.28713C28.689 11.2935 29.3139 13.5704 29.3327 15.8925C29.3514 18.2146 28.7634 20.5013 27.6268 22.5263C26.4902 24.5513 24.8444 26.2443 22.8524 27.4378C20.8604 28.6313 18.5912 29.2838 16.2695 29.3308C13.9479 29.3778 11.6541 28.8176 9.61549 27.7057C7.57683 26.5938 5.86391 24.9688 4.6463 22.9914C3.4287 21.0141 2.74863 18.753 2.67341 16.4321L2.66675 16.0001L2.67341 15.5681C2.74809 13.2654 3.41814 11.0213 4.61827 9.05472C5.81839 7.08809 7.50762 5.466 9.52127 4.34657C11.5349 3.22714 13.8043 2.64859 16.1081 2.66731C18.4119 2.68603 20.6716 3.30139 22.6667 4.45339ZM20.0001 17.3334H12.0001C11.6465 17.3334 11.3073 17.4739 11.0573 17.7239C10.8072 17.974 10.6667 18.3131 10.6667 18.6667V18.7334C10.6668 20.0933 11.1895 21.4012 12.1269 22.3865C13.0643 23.3717 14.3445 23.959 15.7027 24.0267L16.0054 24.0334C17.3679 24.0236 18.6757 23.496 19.6636 22.5576C20.6515 21.6192 21.2456 20.3403 21.3254 18.9801L21.3334 18.7054C21.3386 18.5271 21.3079 18.3495 21.2432 18.1833C21.1786 18.017 21.0812 17.8654 20.9568 17.7375C20.8325 17.6096 20.6838 17.5079 20.5194 17.4385C20.3551 17.369 20.1785 17.3333 20.0001 17.3334ZM12.0134 10.6667L11.8441 10.6761C11.5066 10.7162 11.1972 10.8837 10.9791 11.1443C10.761 11.4049 10.6506 11.7389 10.6705 12.0782C10.6904 12.4175 10.8391 12.7363 11.0863 12.9696C11.3334 13.2029 11.6602 13.333 12.0001 13.3334L12.1694 13.3241C12.5069 13.2839 12.8163 13.1164 13.0344 12.8558C13.2525 12.5952 13.3629 12.2612 13.343 11.9219C13.3231 11.5827 13.1744 11.2638 12.9272 11.0305C12.6801 10.7972 12.3533 10.6671 12.0134 10.6667ZM20.0134 10.6667L19.8441 10.6761C19.5066 10.7162 19.1972 10.8837 18.9791 11.1443C18.761 11.4049 18.6506 11.7389 18.6705 12.0782C18.6904 12.4175 18.8391 12.7363 19.0863 12.9696C19.3334 13.2029 19.6602 13.333 20.0001 13.3334L20.1694 13.3241C20.5069 13.2839 20.8163 13.1164 21.0344 12.8558C21.2525 12.5952 21.3629 12.2612 21.343 11.9219C21.3231 11.5827 21.1744 11.2638 20.9272 11.0305C20.6801 10.7972 20.3533 10.6671 20.0134 10.6667Z" fill="#465613"/>
</svg>
