<svg width="24" height="24" viewBox="0 0 24 24" fill="none" xmlns="http://www.w3.org/2000/svg">
<path d="M14.2127 9.7877C13.5768 9.15195 12.7144 8.7948 11.8152 8.7948C10.916 8.7948 10.0536 9.15195 9.41772 9.7877L5.99272 13.2137C5.357 13.8496 4.99991 14.7119 5 15.6111C5.00009 16.5102 5.35737 17.3725 5.99322 18.0082C6.62908 18.6439 7.49143 19.001 8.39058 19.0009C9.28972 19.0008 10.152 18.6436 10.7877 18.0077L11.1087 17.7037" stroke="#6B6B6B" stroke-width="2" stroke-linecap="round" stroke-linejoin="round"/>
<path d="M10.7877 13.2137C11.1025 13.5286 11.4763 13.7784 11.8877 13.9489C12.299 14.1193 12.7399 14.207 13.1852 14.207C13.6305 14.207 14.0714 14.1193 14.4828 13.9489C14.8942 13.7784 15.2679 13.5286 15.5827 13.2137L19.0067 9.78772C19.6426 9.152 19.9998 8.28972 19.9999 7.39058C20 6.49143 19.6429 5.62908 19.0072 4.99322C18.3715 4.35737 17.5092 4.00009 16.6101 4C15.7109 3.99991 14.8486 4.357 14.2127 4.99272L13.1847 5.95372" stroke="#C1C1C1" stroke-width="2" stroke-linecap="round" stroke-linejoin="round"/>
</svg>
