<svg width="32" height="32" viewBox="0 0 32 32" fill="none" xmlns="http://www.w3.org/2000/svg">
<path fill-rule="evenodd" clip-rule="evenodd" d="M17.6667 14.54C18.3041 13.3933 18.6667 12.0733 18.6667 10.6666C18.6686 9.31103 18.3244 7.97737 17.6667 6.79198C18.4238 6.07562 19.3742 5.59679 20.4005 5.41468C21.4267 5.23257 22.4839 5.35516 23.4412 5.76729C24.3985 6.17942 25.2142 6.86304 25.7872 7.73364C26.3603 8.60425 26.6657 9.62369 26.6657 10.666C26.6657 11.7083 26.3603 12.7277 25.7872 13.5983C25.2142 14.4689 24.3985 15.1525 23.4412 15.5647C22.4839 15.9768 21.4267 16.0994 20.4005 15.9173C19.3742 15.7352 18.4238 15.2563 17.6667 14.54ZM20.6214 26.6666C21.0747 25.8826 21.3347 24.972 21.3347 24V22.6666C21.3375 20.6983 20.6118 18.7985 19.2974 17.3333H24.0001C25.4146 17.3333 26.7711 17.8952 27.7713 18.8954C28.7715 19.8956 29.3334 21.2522 29.3334 22.6666V24C29.3334 24.7072 29.0525 25.3855 28.5524 25.8856C28.0523 26.3857 27.374 26.6666 26.6667 26.6666H20.6214Z" fill="#BCC1AB"/>
<path fill-rule="evenodd" clip-rule="evenodd" d="M10.6667 5.33325C9.25226 5.33325 7.89571 5.89515 6.89551 6.89535C5.89532 7.89554 5.33341 9.2521 5.33341 10.6666C5.33341 12.0811 5.89532 13.4376 6.89551 14.4378C7.89571 15.438 9.25226 15.9999 10.6667 15.9999C12.0812 15.9999 13.4378 15.438 14.438 14.4378C15.4382 13.4376 16.0001 12.0811 16.0001 10.6666C16.0001 9.2521 15.4382 7.89554 14.438 6.89535C13.4378 5.89515 12.0812 5.33325 10.6667 5.33325ZM8.00008 17.3333C6.58559 17.3333 5.22904 17.8952 4.22885 18.8953C3.22865 19.8955 2.66675 21.2521 2.66675 22.6666V23.9999C2.66675 24.7072 2.9477 25.3854 3.4478 25.8855C3.94789 26.3856 4.62617 26.6666 5.33341 26.6666H16.0001C16.7073 26.6666 17.3856 26.3856 17.8857 25.8855C18.3858 25.3854 18.6667 24.7072 18.6667 23.9999V22.6666C18.6667 21.2521 18.1048 19.8955 17.1047 18.8953C16.1045 17.8952 14.7479 17.3333 13.3334 17.3333H8.00008Z" fill="#465613"/>
</svg>
