<svg width="32" height="32" viewBox="0 0 32 32" fill="none" xmlns="http://www.w3.org/2000/svg">
<path d="M23.0938 14.537L23.0933 14.5387L23.092 14.5374L23.0938 14.537Z" fill="#C1C1C1"/>
<path d="M23.0938 14.537C23.7581 14.3763 24.3791 14.0717 24.9127 13.6447C25.4468 13.2172 25.8805 12.6776 26.1829 12.0639C26.4853 11.4503 26.6491 10.7777 26.6627 10.0937C26.6763 9.40972 26.5393 8.73113 26.2615 8.10596C25.9837 7.4808 25.5718 6.92436 25.0551 6.47605C24.5384 6.02774 23.9294 5.69852 23.2713 5.51172C22.6131 5.32491 21.922 5.28508 21.2468 5.39504C20.5716 5.50501 19.9288 5.76209 19.364 6.14806C20.8462 6.91509 22.0231 8.16393 22.701 9.68901C23.3786 11.2135 23.5171 12.9233 23.0938 14.537Z" fill="#C1C1C1"/>
<path d="M6.00355 7.58931C5.56485 8.3169 5.33311 9.15045 5.33331 10.0001C5.3332 11.048 5.68573 12.0656 6.33415 12.8888C6.98257 13.7121 7.88916 14.2933 8.90798 14.5387C8.4815 12.9247 8.6185 11.2134 9.29635 9.68777C9.97419 8.16212 11.1523 6.91343 12.636 6.14806C11.9349 5.66815 11.1161 5.38874 10.2679 5.33997C9.41965 5.2912 8.57422 5.47492 7.82274 5.8713C7.07126 6.26769 6.44225 6.86172 6.00355 7.58931Z" fill="#C1C1C1"/>
<path d="M26.6667 24H26C26.0007 22.5768 25.6215 21.1793 24.9017 19.9516C24.1819 18.7239 23.1475 17.7105 21.9054 17.016C22.142 16.695 22.352 16.3552 22.5334 16H24C25.4145 16 26.7711 16.5619 27.7713 17.5621C28.7714 18.5623 29.3334 19.9188 29.3334 21.3333C29.3334 22.0406 29.0524 22.7189 28.5523 23.219C28.0522 23.719 27.3739 24 26.6667 24Z" fill="#C1C1C1"/>
<path d="M8.00002 16H9.46669C9.64807 16.3552 9.8581 16.695 10.0947 17.016C8.85249 17.7105 7.81812 18.7239 7.09833 19.9516C6.37853 21.1793 5.99939 22.5768 6.00002 24H5.33335C4.62611 24 3.94783 23.719 3.44774 23.219C2.94764 22.7189 2.66669 22.0406 2.66669 21.3333C2.66669 19.9188 3.22859 18.5623 4.22878 17.5621C5.22898 16.5619 6.58553 16 8.00002 16Z" fill="#C1C1C1"/>
<path d="M14.2141 8.35523C14.7803 8.12071 15.3871 8 16 8C17.2377 8 18.4246 8.49167 19.2998 9.36684C20.175 10.242 20.6666 11.429 20.6666 12.6667C20.6666 13.9043 20.175 15.0913 19.2998 15.9665C18.4246 16.8417 17.2377 17.3333 16 17.3333C15.3871 17.3333 14.7803 17.2126 14.2141 16.9781C13.6479 16.7436 13.1335 16.3998 12.7001 15.9665C12.2668 15.5332 11.9231 15.0187 11.6885 14.4525C11.454 13.8863 11.3333 13.2795 11.3333 12.6667C11.3333 12.0538 11.454 11.447 11.6885 10.8808C11.9231 10.3146 12.2668 9.80018 12.7001 9.36684C13.1335 8.9335 13.6479 8.58975 14.2141 8.35523Z" fill="#6B6B6B"/>
<path d="M10.2288 20.2287C11.229 19.2285 12.5855 18.6666 14 18.6666H18C19.4145 18.6666 20.7711 19.2285 21.7713 20.2287C22.7714 21.2289 23.3334 22.5854 23.3334 23.9999C23.3334 24.7072 23.0524 25.3855 22.5523 25.8856C22.0522 26.3857 21.3739 26.6666 20.6667 26.6666H11.3334C10.6261 26.6666 9.94783 26.3857 9.44774 25.8856C8.94764 25.3855 8.66669 24.7072 8.66669 23.9999C8.66669 22.5854 9.22859 21.2289 10.2288 20.2287Z" fill="#6B6B6B"/>
</svg>
