<?xml version="1.0" encoding="UTF-8"?>
<svg id="Camada_2" data-name="Camada 2" xmlns="http://www.w3.org/2000/svg" viewBox="0 0 217.6 110.7">
  <defs>
    <style>
      .cls-1 {
        fill: #333;
        stroke-width: 0px;
      }
    </style>
  </defs>
  <g id="a">
    <path class="cls-1" d="M52.4,0C22.2,0,0,23,0,55.4s7.5,33.8,19.4,43.8c8,6.7,17.9,10.9,28.9,11.5h14.5c14.8,0,19.1-11.5,19.1-11.5h-31.5c-22.4-1.1-38.9-19.9-38.9-43.8S26.6,11.5,52.4,11.5s40.8,20.3,41.1,43.2c0,.2,0,.4,0,.6v53.2h11.5v-53.2C105,23.8,83.9,0,52.4,0h0Z"/>
    <g>
      <path class="cls-1" d="M93.5,54.7v.6c0-.2,0-.4,0-.6h0Z"/>
      <rect class="cls-1" x="144.4" y="97" width="73.2" height="11.5"/>
    </g>
  </g>
</svg>