<?xml version="1.0" encoding="UTF-8"?>
<svg id="Camada_2" data-name="Camada 2" xmlns="http://www.w3.org/2000/svg" viewBox="0 0 782.7 110.8">
  <defs>
    <style>
      .cls-1 {
        fill: #333;
        stroke-width: 0px;
      }
    </style>
  </defs>
  <g id="a">
    <path class="cls-1" d="M177.9,11.5c21.1,0,36.2,12.1,39.6,30.9h11.9C225.8,17.5,205.6,0,177.9,0s-53.5,23.2-53.5,55.4,23,55.4,53.5,55.4,47.9-17.5,51.6-42.6h-11.9c-3.2,18.7-19.6,31.1-39.6,31.1s-42-18.3-42-43.9,18.3-43.9,42-43.9h0Z"/>
    <path class="cls-1" d="M617.6,0c-30.9,0-52.6,23.2-52.6,55.4s21.7,55.4,52.6,55.4,52.4-23.4,52.4-55.4S648.5,0,617.6,0ZM617.6,99.3c-24.3,0-41.1-18.3-41.1-43.9s16.8-43.9,41.1-43.9,40.9,18.1,40.9,43.9-16.8,43.9-40.9,43.9Z"/>
    <path class="cls-1" d="M52.4,0C22.2,0,0,23,0,55.4s7.5,33.8,19.4,43.8c7.9,6.7,17.9,10.9,28.9,11.5h14.5c14.8,0,19.1-11.5,19.1-11.5h-31.5c-22.4-1.1-38.9-19.9-38.9-43.8S26.6,11.5,52.4,11.5s40.8,20.3,41.1,43.2c0,.2,0,.4,0,.6v53.2h11.5v-53.2C105,23.9,83.9,0,52.4,0Z"/>
    <path class="cls-1" d="M298.5,0c-30.9,0-52.8,23.2-52.8,55.4s22,55.4,52.4,55.4,43.5-14.7,50.5-37.5h-12.2c-5.8,16.4-20.4,27-38.3,27s-39-16.4-40.5-41.1h0s0,0,0,0h0c-.2-2.8,0-7.6,0-7.6,1.5-24.7,17.7-41.3,40.9-41.3s38.2,15.4,40.6,37.5h-51.5c-13.9,0-18.4,11.5-18.4,11.5h70.2s10.9,0,10.9,0c.2-1.7.4-4,.4-5.5,0-30.4-21.3-53.7-52.2-53.7h0Z"/>
    <rect class="cls-1" x="709.4" y="97.1" width="73.3" height="11.5"/>
    <path class="cls-1" d="M395,1h0s-20.6,0-20.6,0c-5.5,0-10,4.5-10,10v98.6h11.5V12.5h63s0-11.5,0-11.5h-43.2c-.3,0-.5,0-.8,0h0Z"/>
    <polygon class="cls-1" points="507.7 95 465.9 2.2 453.8 2.2 501.5 108.6 507.7 108.6 513.9 108.6 561.6 2.2 549.4 2.2 507.7 95"/>
  </g>
</svg>